<svg xmlns="http://www.w3.org/2000/svg" viewBox="0 0 800 1000" preserveAspectRatio="xMidYMid slice">
  <defs>
    <linearGradient id="am-bg" x1="0" y1="0" x2="1" y2="1">
      <stop offset="0%" stop-color="#0d0a08"/>
      <stop offset="100%" stop-color="#1c130b"/>
    </linearGradient>
  </defs>
  <rect width="800" height="1000" fill="url(#am-bg)"/>
  <g stroke="#d4a574" stroke-width="1" fill="none" opacity="0.8">
    <path d="M0 500 Q 100 480 200 500 T 400 500 T 600 500 T 800 500"/>
    <path d="M0 500 Q 100 460 200 500 T 400 500 T 600 500 T 800 500" opacity="0.6"/>
    <path d="M0 500 Q 100 440 200 500 T 400 500 T 600 500 T 800 500" opacity="0.35"/>
  </g>
  <g fill="#d4a574" opacity="0.7">
    <rect x="60" y="430" width="3" height="140" rx="1.5"/>
    <rect x="80" y="410" width="3" height="180" rx="1.5"/>
    <rect x="100" y="450" width="3" height="100" rx="1.5"/>
    <rect x="120" y="380" width="3" height="240" rx="1.5"/>
    <rect x="140" y="420" width="3" height="160" rx="1.5"/>
    <rect x="160" y="460" width="3" height="80" rx="1.5"/>
    <rect x="180" y="400" width="3" height="200" rx="1.5"/>
    <rect x="200" y="440" width="3" height="120" rx="1.5"/>
    <rect x="220" y="390" width="3" height="220" rx="1.5"/>
    <rect x="240" y="430" width="3" height="140" rx="1.5"/>
    <rect x="260" y="450" width="3" height="100" rx="1.5"/>
    <rect x="280" y="370" width="3" height="260" rx="1.5"/>
    <rect x="300" y="410" width="3" height="180" rx="1.5"/>
    <rect x="320" y="440" width="3" height="120" rx="1.5"/>
    <rect x="340" y="380" width="3" height="240" rx="1.5"/>
    <rect x="360" y="420" width="3" height="160" rx="1.5"/>
    <rect x="380" y="400" width="3" height="200" rx="1.5"/>
    <rect x="400" y="350" width="3" height="300" rx="1.5"/>
    <rect x="420" y="400" width="3" height="200" rx="1.5"/>
    <rect x="440" y="430" width="3" height="140" rx="1.5"/>
    <rect x="460" y="380" width="3" height="240" rx="1.5"/>
    <rect x="480" y="450" width="3" height="100" rx="1.5"/>
    <rect x="500" y="410" width="3" height="180" rx="1.5"/>
    <rect x="520" y="440" width="3" height="120" rx="1.5"/>
    <rect x="540" y="390" width="3" height="220" rx="1.5"/>
    <rect x="560" y="430" width="3" height="140" rx="1.5"/>
    <rect x="580" y="460" width="3" height="80" rx="1.5"/>
    <rect x="600" y="400" width="3" height="200" rx="1.5"/>
    <rect x="620" y="440" width="3" height="120" rx="1.5"/>
    <rect x="640" y="420" width="3" height="160" rx="1.5"/>
    <rect x="660" y="450" width="3" height="100" rx="1.5"/>
    <rect x="680" y="410" width="3" height="180" rx="1.5"/>
    <rect x="700" y="430" width="3" height="140" rx="1.5"/>
    <rect x="720" y="460" width="3" height="80" rx="1.5"/>
  </g>
  <text x="60" y="940" font-family="ui-monospace, monospace" font-size="11" fill="#d4a574" letter-spacing="3" opacity="0.7">// AMBIENT TRACK 01 — 03:12</text>
</svg>
