<svg xmlns="http://www.w3.org/2000/svg" viewBox="0 0 800 1000" preserveAspectRatio="xMidYMid slice">
  <defs>
    <radialGradient id="sb-bg" cx="30%" cy="30%" r="80%">
      <stop offset="0%" stop-color="#1a1410"/>
      <stop offset="100%" stop-color="#050403"/>
    </radialGradient>
    <linearGradient id="sb-line" x1="0" y1="0" x2="1" y2="1">
      <stop offset="0%" stop-color="#d4a574" stop-opacity="0.9"/>
      <stop offset="100%" stop-color="#a8632d" stop-opacity="0.2"/>
    </linearGradient>
    <filter id="sb-blur"><feGaussianBlur stdDeviation="14"/></filter>
  </defs>
  <rect width="800" height="1000" fill="url(#sb-bg)"/>
  <g opacity="0.55" filter="url(#sb-blur)">
    <circle cx="220" cy="260" r="160" fill="#d4a574" opacity="0.4"/>
    <circle cx="600" cy="700" r="220" fill="#a8632d" opacity="0.35"/>
  </g>
  <g stroke="url(#sb-line)" stroke-width="1.2" fill="none" opacity="0.75">
    <circle cx="400" cy="500" r="40"/>
    <circle cx="400" cy="500" r="120"/>
    <circle cx="400" cy="500" r="220"/>
    <circle cx="400" cy="500" r="320"/>
  </g>
  <g fill="#d4a574">
    <circle cx="400" cy="500" r="4"/>
    <circle cx="520" cy="500" r="3"/>
    <circle cx="280" cy="500" r="3"/>
    <circle cx="400" cy="380" r="3"/>
    <circle cx="400" cy="620" r="3"/>
    <circle cx="180" cy="430" r="2.5"/>
    <circle cx="620" cy="570" r="2.5"/>
    <circle cx="500" cy="280" r="2.5"/>
    <circle cx="300" cy="720" r="2.5"/>
    <circle cx="700" cy="420" r="2"/>
    <circle cx="100" cy="560" r="2"/>
  </g>
  <g stroke="#d4a574" stroke-width="0.6" opacity="0.45">
    <line x1="400" y1="500" x2="520" y2="500"/>
    <line x1="400" y1="500" x2="280" y2="500"/>
    <line x1="400" y1="500" x2="400" y2="380"/>
    <line x1="400" y1="500" x2="400" y2="620"/>
    <line x1="280" y1="500" x2="180" y2="430"/>
    <line x1="520" y1="500" x2="620" y2="570"/>
    <line x1="400" y1="380" x2="500" y2="280"/>
    <line x1="400" y1="620" x2="300" y2="720"/>
  </g>
  <text x="60" y="940" font-family="ui-monospace, monospace" font-size="11" fill="#d4a574" letter-spacing="3" opacity="0.7">// SECOND BRAIN — KNOWLEDGE GRAPH</text>
</svg>
